<svg 
 xmlns="http://www.w3.org/2000/svg"
 xmlns:xlink="http://www.w3.org/1999/xlink"
 width="103.896px" height="103.896px">
<path fill-rule="evenodd"  fill="rgb(51, 51, 51)"
 d="M45.779,-0.000 L54.221,-0.000 L54.221,100.000 L45.779,100.000 L45.779,-0.000 Z"/>
<path fill-rule="evenodd"  fill="rgb(51, 51, 51)"
 d="M-0.000,54.221 L-0.000,45.779 L100.000,45.779 L100.000,54.221 L-0.000,54.221 Z"/>
<path fill-rule="evenodd"  stroke="rgb(54, 50, 61)" stroke-width="7.792px" stroke-linecap="butt" stroke-linejoin="miter" fill="rgb(255, 255, 255)"
 d="M50.000,18.405 C67.449,18.405 81.595,32.551 81.595,50.000 C81.595,67.449 67.449,81.595 50.000,81.595 C32.551,81.595 18.405,67.449 18.405,50.000 C18.405,32.551 32.551,18.405 50.000,18.405 Z"/>
<path fill-rule="evenodd"  fill="rgb(51, 51, 51)"
 d="M50.000,31.818 C60.042,31.818 68.182,39.958 68.182,50.000 C68.182,60.042 60.042,68.182 50.000,68.182 C39.958,68.182 31.818,60.042 31.818,50.000 C31.818,39.958 39.958,31.818 50.000,31.818 Z"/>
</svg>
